<svg xmlns="http://www.w3.org/2000/svg"  viewBox="0 0 64 64" width="1000px" height="1000px"><path d="M 32.373047 7 L 21.738281 7.0117188 C 21.368281 7.0117188 21.029469 7.2159687 20.855469 7.5429688 L 20.128906 8.9121094 C 19.872906 9.3941094 20.049344 9.9928594 20.527344 10.255859 L 21.833984 10.976562 C 22.143984 11.147562 22.520219 11.142891 22.824219 10.962891 L 23.900391 10.328125 L 31 11 L 36.802734 16.207031 L 25.574219 23.634766 C 23.291219 25.144766 21.727094 27.525703 21.246094 30.220703 L 19.246094 41.443359 L 8.53125 53.652344 C 7.92425 54.343344 7.8307813 55.347672 8.3007812 56.138672 L 10 59 L 14 59 L 14 58.035156 C 14 57.544156 13.758516 57.085594 13.353516 56.808594 L 13 56.566406 L 13.09375 55.357422 L 24.183594 44.736328 L 30.21875 34.3125 L 40.09375 27.728516 L 44.005859 34.683594 C 44.564859 35.677594 45.839641 36.003391 46.806641 35.400391 L 54.802734 30.414062 L 56.699219 29.828125 C 57.132219 29.693125 57.422297 29.285031 57.404297 28.832031 L 57.337891 27.210938 C 57.318891 26.739937 56.973766 26.346625 56.509766 26.265625 L 54.558594 25.927734 C 54.241594 25.872734 53.9175 25.973219 53.6875 26.199219 L 52.779297 27.09375 L 46.980469 30.205078 L 42.287109 13.464844 L 33.513672 7.3574219 C 33.179672 7.1244219 32.780047 7 32.373047 7 z M 49.050781 10.103516 C 46.841781 10.103516 45.050781 11.866016 45.050781 14.041016 L 45.050781 14.603516 C 45.050781 16.778516 46.764781 19.103516 49.050781 19.103516 C 51.336781 19.103516 53.050781 16.778516 53.050781 14.603516 L 53.050781 14.041016 C 53.050781 11.866016 51.259781 10.103516 49.050781 10.103516 z M 35.154297 33.408203 L 31.716797 34.71875 L 26.341797 44 L 35.994141 44 C 38.291141 44 39.736422 41.525391 38.607422 39.525391 L 35.154297 33.408203 z"/></svg>